<?xml version="1.0" encoding="utf-8" ?>
<svg baseProfile="full" height="100%" version="1.1" width="100%" xmlns="http://www.w3.org/2000/svg" xmlns:ev="http://www.w3.org/2001/xml-events" xmlns:xlink="http://www.w3.org/1999/xlink"><defs /><rect fill="blue" height="5mm" stroke="blue" stroke-width="1" width="19.344154779472046cm" x="0.3279226102639777cm" y="0cm" /><rect fill="white" height="5mm" stroke="blue" stroke-width="1" width="0.4590916543695688cm" x="0.3279226102639777cm" y="1cm" /><rect fill="white" height="5mm" stroke="blue" stroke-width="1" width="0.4426955238563699cm" x="0.9378586653549762cm" y="1cm" /><rect fill="white" height="5mm" stroke="blue" stroke-width="1" width="0.46237088047220853cm" x="5.397606164945073cm" y="1cm" /><rect fill="white" height="5mm" stroke="blue" stroke-width="1" width="0.46237088047220853cm" x="7.814395802590589cm" y="1cm" /><rect fill="white" height="5mm" stroke="blue" stroke-width="1" width="1.072306935563207cm" x="12.293818658796525cm" y="1cm" /><rect fill="white" height="5mm" stroke="blue" stroke-width="1" width="0.37383177570093457cm" x="19.29824561403509cm" y="1cm" /><line stroke="blue" stroke-width="1" x1="0.7870142646335465cm" x2="0.8624364649942614cm" y1="1.25cm" y2="1cm" /><line stroke="blue" stroke-width="1" x1="0.8624364649942614cm" x2="0.9378586653549763cm" y1="1cm" y2="1.25cm" /><line stroke="blue" stroke-width="1" x1="1.3805541892113462cm" x2="3.3890801770782097cm" y1="1.25cm" y2="1cm" /><line stroke="blue" stroke-width="1" x1="3.3890801770782097cm" x2="5.397606164945073cm" y1="1cm" y2="1.25cm" /><line stroke="blue" stroke-width="1" x1="5.859977045417281cm" x2="6.837186424003935cm" y1="1.25cm" y2="1cm" /><line stroke="blue" stroke-width="1" x1="6.837186424003935cm" x2="7.814395802590589cm" y1="1cm" y2="1.25cm" /><line stroke="blue" stroke-width="1" x1="8.276766683062798cm" x2="10.28529267092966cm" y1="1.25cm" y2="1cm" /><line stroke="blue" stroke-width="1" x1="10.28529267092966cm" x2="12.293818658796525cm" y1="1cm" y2="1.25cm" /><line stroke="blue" stroke-width="1" x1="13.366125594359731cm" x2="16.33218560419741cm" y1="1.25cm" y2="1cm" /><line stroke="blue" stroke-width="1" x1="16.33218560419741cm" x2="19.29824561403509cm" y1="1cm" y2="1.25cm" /><rect fill="white" height="5mm" stroke="blue" stroke-width="1" width="0.17707820954254797cm" x="0.6099360550909986cm" y="2cm" /><rect fill="white" height="5mm" stroke="blue" stroke-width="1" width="0.4426955238563699cm" x="0.9378586653549762cm" y="2cm" /><rect fill="white" height="5mm" stroke="blue" stroke-width="1" width="0.46237088047220853cm" x="5.397606164945073cm" y="2cm" /><rect fill="white" height="5mm" stroke="blue" stroke-width="1" width="0.46237088047220853cm" x="7.814395802590589cm" y="2cm" /><rect fill="white" height="5mm" stroke="blue" stroke-width="1" width="0.9050664043285784cm" x="12.293818658796525cm" y="2cm" /><line stroke="blue" stroke-width="1" x1="0.7870142646335465cm" x2="0.8624364649942614cm" y1="2.25cm" y2="2cm" /><line stroke="blue" stroke-width="1" x1="0.8624364649942614cm" x2="0.9378586653549763cm" y1="2cm" y2="2.25cm" /><line stroke="blue" stroke-width="1" x1="1.3805541892113462cm" x2="3.3890801770782097cm" y1="2.25cm" y2="2cm" /><line stroke="blue" stroke-width="1" x1="3.3890801770782097cm" x2="5.397606164945073cm" y1="2cm" y2="2.25cm" /><line stroke="blue" stroke-width="1" x1="5.859977045417281cm" x2="6.837186424003935cm" y1="2.25cm" y2="2cm" /><line stroke="blue" stroke-width="1" x1="6.837186424003935cm" x2="7.814395802590589cm" y1="2cm" y2="2.25cm" /><line stroke="blue" stroke-width="1" x1="8.276766683062798cm" x2="10.28529267092966cm" y1="2.25cm" y2="2cm" /><line stroke="blue" stroke-width="1" x1="10.28529267092966cm" x2="12.293818658796525cm" y1="2cm" y2="2.25cm" /><rect fill="blue" height="5mm" stroke="blue" stroke-width="1" width="2.8824397442203638cm" x="5.3943269388424335cm" y="3cm" /><rect fill="white" height="5mm" stroke="red" stroke-width="1" width="4.767994753238236cm" x="0.7247089686833907cm" y="4cm" /><rect fill="white" height="5mm" stroke="red" stroke-width="1" width="0.15084440072142974cm" x="0.7870142646335465cm" y="4.5cm" /><rect fill="white" height="5mm" stroke="red" stroke-width="1" width="0.17379898343990818cm" x="0.7870142646335465cm" y="5.0cm" /><rect fill="white" height="5mm" stroke="red" stroke-width="1" width="0.31808493195605836cm" x="0.7870142646335465cm" y="5.5cm" /><rect fill="white" height="5mm" stroke="red" stroke-width="1" width="4.610591900311526cm" x="0.7870142646335465cm" y="6.0cm" /><rect fill="white" height="5mm" stroke="red" stroke-width="1" width="4.017051975733727cm" x="1.3805541892113462cm" y="6.5cm" /><rect fill="white" height="5mm" stroke="red" stroke-width="1" width="6.433841613379243cm" x="1.3805541892113462cm" y="7.0cm" /><rect fill="white" height="5mm" stroke="red" stroke-width="1" width="10.913264469585178cm" x="1.3805541892113462cm" y="7.5cm" /><rect fill="white" height="5mm" stroke="red" stroke-width="1" width="3.9449090014756516cm" x="1.4526971634694212cm" y="8.0cm" /><rect fill="white" height="5mm" stroke="red" stroke-width="1" width="1.9675356615838662cm" x="5.846860141006722cm" y="8.5cm" /><rect fill="white" height="5mm" stroke="red" stroke-width="1" width="1.9347434005574684cm" x="5.859977045417281cm" y="9.0cm" /><rect fill="white" height="5mm" stroke="red" stroke-width="1" width="1.9544187571733072cm" x="5.859977045417281cm" y="9.5cm" /><rect fill="white" height="5mm" stroke="red" stroke-width="1" width="6.433841613379243cm" x="5.859977045417281cm" y="10.0cm" /><rect fill="white" height="5mm" stroke="red" stroke-width="1" width="1.8888342351205116cm" x="5.925561567470077cm" y="10.5cm" /><rect fill="white" height="5mm" stroke="red" stroke-width="1" width="3.571077225774717cm" x="8.276766683062798cm" y="11.0cm" /><rect fill="white" height="5mm" stroke="red" stroke-width="1" width="4.017051975733727cm" x="8.276766683062798cm" y="11.5cm" /><rect fill="white" height="5mm" stroke="red" stroke-width="1" width="4.062961141170684cm" x="8.276766683062798cm" y="12.0cm" /><rect fill="white" height="5mm" stroke="red" stroke-width="1" width="4.295786194458108cm" x="8.276766683062798cm" y="12.5cm" /><rect fill="white" height="5mm" stroke="red" stroke-width="1" width="11.02147893097229cm" x="8.276766683062798cm" y="13.0cm" /><rect fill="white" height="5mm" stroke="red" stroke-width="1" width="0.662403672733235cm" x="12.559435973110347cm" y="13.5cm" /><rect fill="white" height="5mm" stroke="red" stroke-width="1" width="0.4820462370880472cm" x="12.602065912444663cm" y="14.0cm" /><rect fill="white" height="5mm" stroke="red" stroke-width="1" width="0.14428594851615018cm" x="12.995573044761436cm" y="14.5cm" /><rect fill="white" height="5mm" stroke="red" stroke-width="1" width="0.9247417609444171cm" x="13.366125594359731cm" y="15.0cm" /><rect fill="white" height="5mm" stroke="red" stroke-width="1" width="5.473028365305788cm" x="13.366125594359731cm" y="15.5cm" /><rect fill="white" height="5mm" stroke="red" stroke-width="1" width="5.932120019675357cm" x="13.366125594359731cm" y="16.0cm" /><rect fill="white" height="5mm" stroke="red" stroke-width="1" width="6.03049680275455cm" x="13.366125594359731cm" y="16.5cm" /><rect fill="white" height="5mm" stroke="red" stroke-width="1" width="6.099360550909985cm" x="13.366125594359731cm" y="17.0cm" /></svg>